HIERARCHY
ROOT Hips
{
	OFFSET 0.00000 0.00000 0.00000
	CHANNELS 6 Xposition Yposition Zposition Zrotation Yrotation Xrotation 
	JOINT RightUpLegDummy
	{
		OFFSET 0 0 0
		CHANNELS 3 Zrotation Yrotation Xrotation
		JOINT RightUpLeg
		{
			OFFSET -3.52197 -3.41223 0.04002
			CHANNELS 3 Zrotation Yrotation Xrotation
			JOINT RightLeg
			{
				OFFSET 0.00006 -17.42390 1.60435
				CHANNELS 3 Zrotation Yrotation Xrotation
				JOINT RightFoot
				{
					OFFSET 0.06154 -16.50078 -1.63900
					CHANNELS 3 Zrotation Yrotation Xrotation
					JOINT RightToes
					{
						OFFSET 0.00298 -1.73825 3.34613
						CHANNELS 3 Zrotation Yrotation Xrotation
						End Site
						{
							OFFSET 0.00480 -0.05416 3.85043
						}
					}
				}
			}
		}
	}
	JOINT SpineDummy
	{
		OFFSET 0 0 0
		CHANNELS 3 Zrotation Yrotation Xrotation
		JOINT Spine
		{
			OFFSET 0.00000 4.68130 0.00000
			CHANNELS 3 Zrotation Yrotation Xrotation
			JOINT Spine1
			{
				OFFSET -0.00000 10.10138 0.05002
				CHANNELS 3 Zrotation Yrotation Xrotation
				JOINT HEadDummy
				{
					OFFSET 0 0 0
					CHANNELS 3 Zrotation Yrotation Xrotation
					JOINT Head
					{
						OFFSET -0.00000 3.43865 0.00438
						CHANNELS 3 Zrotation Yrotation Xrotation
						End Site
						{
							OFFSET -0.11417 5.02924 0.98962
						}
					}
				}
				JOINT LeftShoulder1Dummy
				{
					OFFSET 0 0 0
					CHANNELS 3 Zrotation Yrotation Xrotation
					JOINT LeftShoulder1
					{
						OFFSET 3.53937 -0.14262 -0.08662
						CHANNELS 3 Zrotation Yrotation Xrotation
						JOINT LeftArm
						{
							OFFSET 4.04833 -0.00133 0.12681
							CHANNELS 3 Zrotation Yrotation Xrotation
							JOINT LeftForeArm
							{
								OFFSET 10.33880 -0.01036 -0.55515
								CHANNELS 3 Zrotation Yrotation Xrotation
								JOINT LeftHand
								{
									OFFSET 8.69677 0.07543 0.40060
									CHANNELS 3 Zrotation Yrotation Xrotation
									End Site
									{
										OFFSET 5.28377 -0.21905 0.59205
									}
								}
							}
						}
					}
				}
				JOINT RightShoulderDummy
				{
					OFFSET 0 0 0
					CHANNELS 3 Zrotation Yrotation Xrotation
					JOINT RightShoulder
					{
						OFFSET -3.53937 -0.14262 -0.08660
						CHANNELS 3 Zrotation Yrotation Xrotation
						JOINT RightArm
						{
							OFFSET -4.04833 -0.00133 0.12683
							CHANNELS 3 Zrotation Yrotation Xrotation
							JOINT RightForeArm
							{
								OFFSET -10.37987 -0.01039 -0.55511
								CHANNELS 3 Zrotation Yrotation Xrotation
								JOINT RightHand
								{
									OFFSET -8.67398 0.07538 0.40058
									CHANNELS 3 Zrotation Yrotation Xrotation
									End Site
									{
										OFFSET -5.24810 -0.21916 0.59204
									}
								}
							}
						}
					}
				}
			}
		}
	}
	JOINT LeftUpLegDummy
	{
		OFFSET 0 0 0
		CHANNELS 3 Zrotation Yrotation Xrotation
		JOINT LeftUpLeg
		{
			OFFSET 3.52197 -3.41223 0.04002
			CHANNELS 3 Zrotation Yrotation Xrotation
			JOINT LeftLeg
			{
				OFFSET -0.00012 -17.42399 1.60337
				CHANNELS 3 Zrotation Yrotation Xrotation
				JOINT LeftFoot
				{
					OFFSET -0.09972 -16.50070 -1.63802
					CHANNELS 3 Zrotation Yrotation Xrotation
					JOINT LeftToes
					{
						OFFSET -0.01575 -1.73823 3.34611
						CHANNELS 3 Zrotation Yrotation Xrotation
						End Site
						{
							OFFSET 0.03150 -0.01868 3.85031
						}
					}
				}
			}
		}
	}
}
MOTION
Frames: 12
Frame Time: 0.033333
-5.2894 38.8086 9.9558 179.4300 30.0815 -178.9940 0.0000 0.0000 0.0000 -9.2757 -4.7103 -9.2118 -4.7972 -9.0324 21.3787 16.0702 -0.3108 -9.3893 0.0000 0.0000 -0.0000 0.0000 0.0000 0.0000 0.0482 2.3342 7.4821 -2.2985 3.8286 28.5150 0.0000 0.0000 0.0000 -8.9807 18.6973 -21.3185 0.0000 0.0000 0.0000 -14.2251 -8.8222 2.6041 -53.3492 -15.0236 13.2336 147.6463 -89.0827 -127.6859 23.3524 -4.6235 -1.9992 0.0000 0.0000 0.0000 14.2962 4.2771 1.6492 59.4520 10.5891 10.2306 179.0883 67.9123 -179.0856 -17.1058 4.7963 -1.4711 0.0000 0.0000 0.0000 7.1794 1.2569 -16.1959 2.5531 4.2007 22.0797 -7.7556 0.4122 -5.9131 -0.0000 0.0000 -0.0000
-5.2861 38.8119 9.9530 179.4400 30.1365 -179.0110 0.0000 0.0000 0.0000 -9.2638 -4.6833 -9.1786 -4.7822 -9.0180 21.3398 16.0095 -0.3118 -9.3741 0.0000 0.0000 -0.0000 0.0000 0.0000 0.0000 -0.0473 2.3352 7.4210 -2.2195 3.7781 28.5816 0.0000 0.0000 0.0000 -9.0487 18.8242 -21.2652 0.0000 0.0000 0.0000 -14.1778 -8.7621 2.5861 -53.4336 -15.1125 13.4046 148.0298 -89.0725 -128.0890 23.4554 -4.5614 -1.9961 0.0000 0.0000 0.0000 14.1966 4.3704 1.6619 59.5448 10.5194 10.2937 179.0729 67.9167 -179.1434 -17.4071 4.8451 -1.5052 0.0000 0.0000 0.0000 7.2109 1.2573 -16.1781 2.5380 4.1621 22.1319 -7.7837 0.4140 -5.8904 -0.0000 0.0000 -0.0000
-5.2813 38.8200 9.9483 179.4650 30.2465 -179.0140 0.0000 0.0000 0.0000 -9.2348 -4.6174 -9.1297 -4.7532 -9.0015 21.2347 15.9591 -0.3167 -9.3318 0.0000 0.0000 -0.0000 0.0000 0.0000 0.0000 -0.1358 2.3477 7.2988 -2.1441 3.7513 28.6803 0.0000 0.0000 0.0000 -9.0960 18.9874 -21.1599 0.0000 0.0000 0.0000 -14.0349 -8.7023 2.5576 -53.6053 -15.3515 13.8933 146.2627 -89.1176 -126.3127 23.7463 -4.5189 -2.0136 0.0000 0.0000 0.0000 14.0884 4.4914 1.6795 59.6289 10.3924 10.3959 179.0544 67.9135 -179.3245 -17.7455 4.8759 -1.5401 0.0000 0.0000 0.0000 7.2644 1.2721 -16.1433 2.5267 4.1333 22.1714 -7.8412 0.4176 -5.8452 -0.0000 0.0000 -0.0000
-5.2785 38.8298 9.9424 179.5120 30.3719 -178.9770 0.0000 0.0000 0.0000 -9.1873 -4.5168 -9.0933 -4.7270 -9.0082 21.0853 15.9531 -0.3252 -9.2685 0.0000 0.0000 -0.0000 0.0000 0.0000 0.0000 -0.1271 2.3873 7.1709 -2.1154 3.7821 28.7179 0.0000 0.0000 0.0000 -9.0690 19.0831 -21.0183 0.0000 0.0000 0.0000 -13.9031 -8.7232 2.5474 -53.7322 -15.6254 14.5172 143.0841 -89.1864 -123.0909 23.7786 -4.6248 -2.0376 0.0000 0.0000 0.0000 14.0243 4.5444 1.6859 59.6746 10.2753 10.5175 179.0358 67.9120 -179.4959 -17.7003 4.8396 -1.5308 0.0000 0.0000 0.0000 7.3172 1.3382 -16.1011 2.5367 4.1578 22.1401 -7.8780 0.4200 -5.8114 -0.0000 0.0000 -0.0000
-5.2770 38.8380 9.9346 179.5590 30.4853 -178.9370 0.0000 0.0000 0.0000 -9.1454 -4.3956 -9.0609 -4.7153 -9.0393 20.9472 15.9646 -0.3336 -9.2082 0.0000 0.0000 -0.0000 0.0000 0.0000 0.0000 -0.0989 2.4271 7.0817 -2.0767 3.8093 28.6777 0.0000 0.0000 0.0000 -9.0212 19.1392 -20.8577 0.0000 0.0000 0.0000 -13.8861 -8.7732 2.5559 -53.7627 -15.7833 15.1267 141.9972 -89.2069 -122.0149 23.4564 -4.7456 -2.0327 0.0000 0.0000 0.0000 13.9882 4.5155 1.6772 59.7005 10.2554 10.7076 179.0231 67.9315 -179.6012 -17.4395 4.7587 -1.4956 0.0000 0.0000 0.0000 7.3508 1.4319 -16.0471 2.5586 4.2116 22.0750 -7.8757 0.4198 -5.8042 -0.0000 0.0000 -0.0000
-5.2754 38.8437 9.9262 179.5680 30.5686 -178.9370 0.0000 0.0000 0.0000 -9.1420 -4.2886 -9.0225 -4.7149 -9.0715 20.8631 15.9805 -0.3391 -9.1705 0.0000 0.0000 -0.0000 0.0000 0.0000 0.0000 -0.1458 2.4441 7.0401 -2.0021 3.7881 28.6083 0.0000 0.0000 0.0000 -8.9973 19.1875 -20.7165 0.0000 0.0000 0.0000 -13.9374 -8.7712 2.5612 -53.7888 -15.7859 15.7455 142.6179 -89.1945 -122.6755 23.2716 -4.6528 -1.9976 0.0000 0.0000 0.0000 13.9734 4.4482 1.6621 59.6940 10.3702 10.9780 179.0058 67.9475 -179.7529 -17.4021 4.6798 -1.4809 0.0000 0.0000 0.0000 7.3513 1.4804 -15.9827 2.5802 4.2624 22.0234 -7.8611 0.4189 -5.8030 -0.0000 0.0000 -0.0000
-5.2739 38.8487 9.9218 179.5360 30.6136 -178.9550 0.0000 0.0000 0.0000 -9.1717 -4.2208 -9.0020 -4.7195 -9.0970 20.8208 15.9996 -0.3425 -9.1483 0.0000 0.0000 -0.0000 0.0000 0.0000 0.0000 -0.2190 2.4405 7.0110 -1.9636 3.7586 28.5545 0.0000 0.0000 0.0000 -8.9746 19.1855 -20.6259 0.0000 0.0000 0.0000 -13.9482 -8.7565 2.5593 -53.8855 -15.6966 16.3476 141.6165 -89.2043 -121.5573 23.4516 -4.4307 -1.9700 0.0000 0.0000 0.0000 13.9619 4.3919 1.6495 59.6931 10.5434 11.2457 178.9860 67.9239 -179.9416 -17.5427 4.6261 -1.4856 0.0000 0.0000 0.0000 7.3244 1.4756 -15.9344 2.5916 4.2940 21.9709 -7.8530 0.4184 -5.7804 -0.0000 0.0000 -0.0000
-5.2724 38.8539 9.9223 179.5050 30.6366 -178.9370 0.0000 0.0000 0.0000 -9.1936 -4.1747 -9.0254 -4.7278 -9.1279 20.7837 16.0073 -0.3456 -9.1252 0.0000 0.0000 -0.0000 0.0000 0.0000 0.0000 -0.1952 2.4296 6.9478 -2.0435 3.7842 28.5353 0.0000 0.0000 0.0000 -8.9200 19.1059 -20.5765 0.0000 0.0000 0.0000 -13.9174 -8.8080 2.5666 -53.9836 -15.5798 16.7810 139.8734 -89.2113 -119.5057 23.5697 -4.3886 -1.9720 0.0000 0.0000 0.0000 13.9184 4.3705 1.6419 59.7811 10.6801 11.4208 178.9815 67.8816 -179.9933 -17.4014 4.5892 -1.4679 0.0000 0.0000 0.0000 7.2972 1.4987 -15.9275 2.5817 4.2894 21.8939 -7.8419 0.4182 -5.7420 -0.0000 0.0000 -0.0000
-5.2706 38.8580 9.9238 179.4990 30.6729 -178.8880 0.0000 0.0000 0.0000 -9.1922 -4.1145 -9.0733 -4.7368 -9.1607 20.7426 15.9964 -0.3479 -9.1022 0.0000 0.0000 -0.0000 0.0000 0.0000 0.0000 -0.0699 2.4219 6.8485 -2.2097 3.8626 28.5547 0.0000 0.0000 0.0000 -8.8433 19.0207 -20.5331 0.0000 0.0000 0.0000 -13.9369 -8.8707 2.5819 -53.9793 -15.4707 17.0328 142.0703 -89.1560 -121.4754 23.3798 -4.5529 -1.9877 0.0000 0.0000 0.0000 13.8449 4.3867 1.6400 59.9363 10.7929 11.4975 178.9900 67.8861 -179.9202 -16.9768 4.5640 -1.4271 0.0000 0.0000 0.0000 7.2885 1.5813 -15.9410 2.5592 4.2600 21.8186 -7.8308 0.4196 -5.7149 -0.0000 0.0000 -0.0000
-5.2676 38.8606 9.9250 179.4980 30.7308 -178.8580 0.0000 0.0000 0.0000 -9.1920 -4.0409 -9.1058 -4.7403 -9.1780 20.7126 15.9862 -0.3500 -9.0879 0.0000 0.0000 -0.0000 0.0000 0.0000 0.0000 0.0435 2.4271 6.7606 -2.3477 3.9424 28.5827 0.0000 0.0000 0.0000 -8.7636 19.0129 -20.4691 0.0000 0.0000 0.0000 -14.0508 -8.8358 2.5874 -53.8766 -15.3909 17.2781 147.1116 -89.0522 -126.6098 23.2277 -4.6248 -1.9883 0.0000 0.0000 0.0000 13.7835 4.4351 1.6457 60.0222 10.9374 11.5214 178.9824 67.9609 -179.9574 -16.8121 4.5610 -1.4122 0.0000 0.0000 0.0000 7.2895 1.6389 -15.9354 2.5571 4.2646 21.7721 -7.8429 0.4221 -5.7032 -0.0000 0.0000 -0.0000
-5.2641 38.8630 9.9263 179.4830 30.7637 -178.8490 0.0000 0.0000 0.0000 -9.1911 -3.9982 -9.1235 -4.7431 -9.1893 20.6956 15.9857 -0.3518 -9.0771 0.0000 0.0000 -0.0000 0.0000 0.0000 0.0000 0.1029 2.4438 6.7127 -2.4151 3.9963 28.5628 0.0000 0.0000 0.0000 -8.6715 19.0654 -20.3758 0.0000 0.0000 0.0000 -14.2037 -8.7475 2.5859 -53.7562 -15.3266 17.5683 150.6139 -88.9767 -130.3854 23.3513 -4.4806 -1.9709 0.0000 0.0000 0.0000 13.7457 4.5004 1.6565 59.9911 11.0708 11.5259 178.9557 68.0576 179.8335 -17.0847 4.5763 -1.4383 0.0000 0.0000 0.0000 7.2879 1.6046 -15.9246 2.5826 4.3214 21.7337 -7.8770 0.4259 -5.6826 -0.0000 0.0000 -0.0000
-5.2598 38.8658 9.9323 179.4750 30.7203 -178.8080 0.0000 0.0000 0.0000 -9.1797 -4.0172 -9.1552 -4.7587 -9.2273 20.6780 15.9764 -0.3527 -9.0616 0.0000 0.0000 -0.0000 0.0000 0.0000 0.0000 0.1853 2.4496 6.6775 -2.4814 4.0366 28.4828 0.0000 0.0000 0.0000 -8.5505 19.1075 -20.2588 0.0000 0.0000 0.0000 -14.3151 -8.7448 2.5978 -53.6768 -15.2340 17.7427 151.9123 -88.9469 -131.8058 23.4857 -4.3562 -1.9582 0.0000 0.0000 0.0000 13.7051 4.5538 1.6642 59.9557 11.1095 11.5329 178.9365 68.1267 179.6883 -17.3290 4.5824 -1.4605 0.0000 0.0000 0.0000 7.2966 1.5260 -15.9614 2.5963 4.3579 21.6813 -7.9026 0.4292 -5.6404 -0.0000 0.0000 -0.0000
